<svg xmlns="http://www.w3.org/2000/svg" viewBox="0 0 1600 900" preserveAspectRatio="xMidYMid slice">
  <defs>
    <radialGradient id="nebula" cx="0.25" cy="0.25" r="0.8">
      <stop offset="0%" stop-color="#2a1b63" />
      <stop offset="40%" stop-color="#120629" stop-opacity="0.95" />
      <stop offset="100%" stop-color="#03010a" stop-opacity="1" />
    </radialGradient>
    <radialGradient id="glowPink" cx="0.65" cy="0.25" r="0.35">
      <stop offset="0%" stop-color="#ff7bff" stop-opacity="0.65" />
      <stop offset="100%" stop-color="#03010a" stop-opacity="0" />
    </radialGradient>
    <radialGradient id="glowBlue" cx="0.35" cy="0.65" r="0.5">
      <stop offset="0%" stop-color="#4dbdff" stop-opacity="0.5" />
      <stop offset="100%" stop-color="#03010a" stop-opacity="0" />
    </radialGradient>
    <radialGradient id="glowTeal" cx="0.75" cy="0.75" r="0.35">
      <stop offset="0%" stop-color="#74f0ff" stop-opacity="0.25" />
      <stop offset="100%" stop-color="#03010a" stop-opacity="0" />
    </radialGradient>
  </defs>
  <rect width="1600" height="900" fill="url(#nebula)" />
  <rect width="1600" height="900" fill="url(#glowPink)" />
  <rect width="1600" height="900" fill="url(#glowBlue)" />
  <rect width="1600" height="900" fill="url(#glowTeal)" />

  <g fill="#ffffff" fill-opacity="0.9">
    <circle cx="300" cy="200" r="1" />
    <circle cx="450" cy="120" r="1.5" />
    <circle cx="600" cy="160" r="1.1" />
    <circle cx="750" cy="80" r="1.3" />
    <circle cx="900" cy="140" r="1.2" />
    <circle cx="1100" cy="120" r="1.4" />
    <circle cx="1300" cy="180" r="1.1" />
    <circle cx="1470" cy="100" r="1.3" />
    <circle cx="250" cy="400" r="1.2" />
    <circle cx="420" cy="360" r="1" />
    <circle cx="520" cy="410" r="1.5" />
    <circle cx="680" cy="340" r="1" />
    <circle cx="860" cy="420" r="1.1" />
    <circle cx="1020" cy="360" r="1.3" />
    <circle cx="1180" cy="430" r="1" />
    <circle cx="1320" cy="360" r="1.4" />
    <circle cx="1500" cy="420" r="1" />
    <circle cx="320" cy="640" r="1.2" />
    <circle cx="500" cy="590" r="1" />
    <circle cx="650" cy="660" r="1.3" />
    <circle cx="780" cy="580" r="1.1" />
    <circle cx="940" cy="640" r="1.4" />
    <circle cx="1120" cy="600" r="1.1" />
    <circle cx="1260" cy="650" r="1.2" />
    <circle cx="1410" cy="620" r="1.3" />
    <circle cx="1550" cy="700" r="1" />
  </g>

  <g fill="#9cc9ff" fill-opacity="0.5">
    <circle cx="360" cy="260" r="2.6" />
    <circle cx="580" cy="220" r="2.1" />
    <circle cx="820" cy="260" r="2.4" />
    <circle cx="1040" cy="220" r="2.7" />
    <circle cx="1240" cy="280" r="2.2" />
    <circle cx="460" cy="520" r="2.5" />
    <circle cx="700" cy="520" r="2.3" />
    <circle cx="920" cy="520" r="2.5" />
    <circle cx="1160" cy="520" r="2.1" />
    <circle cx="1380" cy="520" r="2.6" />
  </g>
</svg>
